name C:\Users\u0101727\Documents\MyRepositories\upper-imu-dc\Results\main_tracking\Case_32\kinematics.mot
datacolumns 10
datarows 28
range 4.55000000 4.82000000
endheader 
time	clav_prot	clav_elev	scapula_abduction	scapula_elevation	scapula_upward_rot	scapula_winging	plane_elv	shoulder_elv	axial_rot	
          4.55000000	        -34.42382077	          5.57661348	        -12.95037744	         -3.66525412	         44.89126153	         -6.49966756	         -4.14226061	         60.17362590	          5.34106969	
          4.56000000	        -34.51336279	          5.66397372	        -12.92157800	         -3.63790166	         45.14960018	         -6.59313406	         -4.02301457	         60.41177665	          5.34601665	
          4.57000000	        -34.60520685	          5.75004684	        -12.90152648	         -3.61058079	         45.40096697	         -6.68580115	         -3.89239417	         60.64803234	          5.34503650	
          4.58000000	        -34.69849973	          5.83457597	        -12.88793469	         -3.58353287	         45.64636139	         -6.77748706	         -3.75248530	         60.88317968	          5.33766737	
          4.59000000	        -34.79220956	          5.91765026	        -12.87803484	         -3.55677449	         45.88715798	         -6.86807601	         -3.60608697	         61.11785988	          5.32474276	
          4.60000000	        -34.88520080	          5.99958716	        -12.86873292	         -3.53017512	         46.12501989	         -6.95749425	         -3.45652117	         61.35257089	          5.30870919	
          4.61000000	        -34.97631983	          6.08070714	        -12.85676326	         -3.50360842	         46.36178573	         -7.04565982	         -3.30740750	         61.58775975	          5.29342352	
          4.62000000	        -35.06451849	          6.16113745	        -12.83897241	         -3.47707962	         46.59928505	         -7.13244890	         -3.16230106	         61.82389855	          5.28344813	
          4.63000000	        -35.14901988	          6.24073828	        -12.81277997	         -3.45076487	         46.83907332	         -7.21770590	         -3.02416599	         62.06147221	          5.28301365	
          4.64000000	        -35.22948285	          6.31915167	        -12.77669414	         -3.42496555	         47.08214978	         -7.30129014	         -2.89481892	         62.30088898	          5.29493810	
          4.65000000	        -35.30608889	          6.39590027	        -12.73063925	         -3.40003338	         47.32877246	         -7.38312387	         -2.77458819	         62.54238799	          5.31984357	
          4.66000000	        -35.37949967	          6.47045582	        -12.67591031	         -3.37632486	         47.57845960	         -7.46320843	         -2.66236332	         62.78601091	          5.35594915	
          4.67000000	        -35.45070520	          6.54225853	        -12.61477651	         -3.35419823	         47.83018142	         -7.54160707	         -2.55599226	         63.03162947	          5.39953172	
          4.68000000	        -35.52084424	          6.61074908	        -12.54996062	         -3.33400660	         48.08265373	         -7.61842831	         -2.45278997	         63.27894376	          5.44590817	
          4.69000000	        -35.59108077	          6.67550048	        -12.48426973	         -3.31602117	         48.33460047	         -7.69384834	         -2.34989765	         63.52736948	          5.49061105	
          4.70000000	        -35.66255960	          6.73646519	        -12.42050802	         -3.30026731	         48.58487729	         -7.76817420	         -2.24439092	         63.77583933	          5.53037580	
          4.71000000	        -35.73639750	          6.79422914	        -12.36158172	         -3.28634474	         48.83243232	         -7.84190167	         -2.13323602	         64.02266564	          5.56363465	
          4.72000000	        -35.81364725	          6.85013222	        -12.31059520	         -3.27333045	         49.07616444	         -7.91571547	         -2.01328209	         64.26560856	          5.59038161	
          4.73000000	        -35.89518476	          6.90614869	        -12.27074003	         -3.25984251	         49.31477764	         -7.99039556	         -1.88145864	         64.50223040	          5.61148204	
          4.74000000	        -35.98152970	          6.96451365	        -12.24490760	         -3.24428229	         49.54673279	         -8.06663928	         -1.73520636	         64.73047235	          5.62766632	
          4.75000000	        -36.07265638	          7.02719386	        -12.23512225	         -3.22519319	         49.77033635	         -8.14484945	         -1.57302046	         64.94928008	          5.63854477	
          4.76000000	        -36.16787445	          7.09537479	        -12.24200776	         -3.20161943	         49.98393832	         -8.22496169	         -1.39489275	         65.15905535	          5.64200978	
          4.77000000	        -36.26583954	          7.16913067	        -12.26449735	         -3.17334911	         50.18617241	         -8.30637423	         -1.20246300	         65.36176109	          5.63431737	
          4.78000000	        -36.36470386	          7.24735691	        -12.29987862	         -3.14098353	         50.37617794	         -8.38800344	         -0.99881785	         65.56063989	          5.61091667	
          4.79000000	        -36.46236680	          7.32793945	        -12.34412109	         -3.10584643	         50.55377450	         -8.46844289	         -0.78802138	         65.75964357	          5.56777302	
          4.80000000	        -36.55676579	          7.40808525	        -12.39237092	         -3.06978171	         50.71957914	         -8.54618198	         -0.57452383	         65.96273402	          5.50269091	
          4.81000000	        -36.64616194	          7.48475000	        -12.43953084	         -3.03487984	         50.87504916	         -8.61984554	         -0.36255703	         66.17319081	          5.41614735	
          4.82000000	        -36.72939391	          7.55512423	        -12.48089512	         -3.00315650	         51.02242019	         -8.68842743	         -0.15556096	         66.39301240	          5.31138430	
